:SAMPLES-PER-SECOND 30
:FULLY-SPECIFIED
:DEGREES
271
root  20.2803 29.1557 54.6578 -152.749 42.7539 177.15
RightUpLeg  -56.3969 1.12068 -21.1297
RightLeg  56.629 6.60596 8.59751
RightFoot  -18.5693 -0.4915 -2.62835
RightToes  -54.2523 -0.341128 -0.379559
Spine  17.75 -5.42108 2.26956
Spine1  27.3559 -14.9331 7.81231
HEad  -9.76423 19.6996 -20.4508
LeftShoulder1  0 -2.42657e-020 -4.95415e-022
LeftArm  -30.3071 -38.5651 -80.8322
LeftForeArm  51.5254 -9.04863 -1.58214
LeftHand  0.0523024 -6.87314 -1.24215
RightShoulder  0 2.42657e-020 1.07489e-018
RightArm  -21.4054 31.8203 77.2023
RightForeArm  59.8711 67.2188 24.9448
RightHand  -5.07009 21.5898 -25.7825
LeftUpLeg  -52.2099 12.5528 9.96035
LeftLeg  75.6893 1.82661 5.58414
LeftFoot  1.26469 0.0228714 -2.07204
LeftToes  -34.5296 8.63562e-007 1.17448e-007
272
root  20.6266 29.2136 54.2842 -152.167 42.2691 177.418
RightUpLeg  -55.3164 1.9619 -21.1086
RightLeg  55.953 5.93129 7.54312
RightFoot  -19.4228 -0.459111 -2.30476
RightToes  -53.8735 -0.337673 -0.37883
Spine  17.9882 -4.96973 2.19092
Spine1  27.6702 -13.5728 7.37374
HEad  -9.36277 19.6371 -20.234
LeftShoulder1  0 -2.42657e-020 -4.95415e-022
LeftArm  -30.6537 -39.3722 -80.5924
LeftForeArm  51.3544 -8.6962 -1.5191
LeftHand  0.0360729 -6.51494 -1.00482
RightShoulder  0 2.42657e-020 1.07489e-018
RightArm  -15.4617 34.1615 77.9871
RightForeArm  65.7639 63.7975 21.0401
RightHand  -6.22766 21.8874 -31.0652
LeftUpLeg  -57.3458 12.0099 7.98989
LeftLeg  77.7091 2.16905 7.50857
LeftFoot  -5.17325 -0.115699 -2.56067
LeftToes  -29.9721 8.63562e-007 1.17448e-007
273
root  20.9127 29.0136 53.8937 -152.334 40.7868 176.294
RightUpLeg  -54.8519 1.12082 -21.6618
RightLeg  57.4383 5.12785 6.87975
RightFoot  -21.4949 -0.469556 -2.09597
RightToes  -53.1812 -0.331381 -0.378305
Spine  18.5499 -4.2797 2.29341
Spine1  28.3782 -11.3783 6.90617
HEad  -8.94924 17.9059 -18.9617
LeftShoulder1  0 -2.42657e-020 -4.95415e-022
LeftArm  -29.2844 -41.9545 -82.1806
LeftForeArm  50.7787 -8.45553 -1.47692
LeftHand  0.0422724 -6.98342 -1.06378
RightShoulder  0 2.42657e-020 1.07489e-018
RightArm  -12.4366 37.952 77.4902
RightForeArm  66.1235 56.0485 15.1636
RightHand  -7.07218 22.766 -33.7653
LeftUpLeg  -63.5442 9.96546 6.74445
LeftLeg  77.3101 2.55992 8.62144
LeftFoot  -9.84226 -0.266137 -3.09023
LeftToes  -25.3169 8.63562e-007 1.17448e-007
274
root  21.1814 28.5474 53.4351 -152.944 39.6936 174.937
RightUpLeg  -54.8226 0.271179 -22.604
RightLeg  60.3822 4.32048 6.4552
RightFoot  -24.3382 -0.484969 -1.87118
RightToes  -53.4816 -0.327477 -0.378026
Spine  19.8081 -2.80292 2.42681
Spine1  30.1603 -7.09784 5.8561
HEad  -8.34834 15.1123 -17.0506
LeftShoulder1  0 -2.42657e-020 -4.95415e-022
LeftArm  -25.5479 -45.914 -85.7259
LeftForeArm  50.4859 -8.95661 -1.56739
LeftHand  0.043505 -7.49664 -1.03495
RightShoulder  0 2.42657e-020 1.07489e-018
RightArm  -14.6075 42.846 76.685
RightForeArm  66.5681 45.2939 10.2068
RightHand  -7.62618 23.1274 -35.7238
LeftUpLeg  -69.1787 8.47323 6.53893
LeftLeg  74.4714 3.20936 9.10824
LeftFoot  -12.3223 -0.3727 -3.45155
LeftToes  -23.6468 8.63562e-007 1.17448e-007
275
root  21.4743 27.9132 52.898 -152.722 39.2715 174.374
RightUpLeg  -55.2381 0.274345 -23.4888
RightLeg  63.3513 3.5618 5.95468
RightFoot  -27.8038 -0.493046 -1.61433
RightToes  -53.3883 -0.324329 -0.378036
Spine  20.9272 -0.903358 2.70478
Spine1  31.6844 -1.6599 4.89268
HEad  -7.08016 12.3211 -14.9086
LeftShoulder1  0 -2.42657e-020 -4.95415e-022
LeftArm  -19.4813 -49.1763 -90.3659
LeftForeArm  49.2829 -10.2937 -1.81083
LeftHand  0.0828517 -8.13561 -1.53623
RightShoulder  0 2.42657e-020 1.07489e-018
RightArm  -24.3713 49.1591 76.0004
RightForeArm  68.8395 29.7531 5.7103
RightHand  -7.55283 23.5705 -34.7494
LeftUpLeg  -74.5758 8.66389 7.35045
LeftLeg  70.7721 4.45636 10.4016
LeftFoot  -14.8924 -0.567957 -4.34354
LeftToes  -21.4249 8.63562e-007 1.17448e-007
276
root  21.7338 27.355 52.1595 -151.724 38.3479 174.694
RightUpLeg  -54.7121 -0.403887 -23.5465
RightLeg  65.0402 3.23625 5.78219
RightFoot  -30.8051 -0.547823 -1.61082
RightToes  -52.9495 -0.323429 -0.378376
Spine  21.2602 0.484887 3.66619
Spine1  32.0987 2.19232 5.55631
HEad  -6.1176 8.89109 -13.7971
LeftShoulder1  0 -2.42657e-020 -4.95415e-022
LeftArm  -13.4555 -50.3119 -95.0938
LeftForeArm  47.6524 -12.2442 -2.16964
LeftHand  0.12148 -8.94288 -1.92479
RightShoulder  0 2.42657e-020 1.07489e-018
RightArm  -45.2949 54.2894 71.0947
RightForeArm  67.9138 16.1996 2.86852
RightHand  -5.53715 22.4731 -26.9982
LeftUpLeg  -79.1861 9.03061 9.10315
LeftLeg  67.4432 5.09566 10.2011
LeftFoot  -16.7772 -0.722954 -4.89966
LeftToes  -19.9771 8.63562e-007 1.17448e-007
